<?xml version="1.0" encoding="UTF-8"?>
<svg id="Layer_1" data-name="Layer 1" xmlns="http://www.w3.org/2000/svg" width="512" height="512" viewBox="0 0 512 512">
  <defs>
    <style>
      .cls-1 {
        fill: #265787;
        stroke-width: 0px;
      }
    </style>
  </defs>
  <path class="cls-1" d="m383.76,210.75l22.63,22.63c12.48,12.48,12.48,32.78,0,45.25l-135.76,135.76c-12.48,12.48-32.78,12.48-45.25,0l-135.76-135.76c-12.48-12.48-12.48-32.78,0-45.25L225.37,97.61c12.48-12.48,32.78-12.48,45.25,0l45.25,45.25-135.76,135.76,45.25,45.25,113.14-113.14,22.63-22.63,45.25-45.25-90.51-90.51c-37.49-37.49-98.27-37.49-135.76,0L44.35,188.12c-37.49,37.49-37.49,98.27,0,135.76l135.76,135.76c37.49,37.49,98.27,37.49,135.76,0l135.76-135.76c37.49-37.49,37.49-98.27,0-135.76l-22.63-22.63-45.25,45.25Z"/>
</svg>